<?xml version="1.0" encoding="utf-8"?>
<!-- Generator: Adobe Illustrator 25.0.0, SVG Export Plug-In . SVG Version: 6.00 Build 0)  -->
<svg version="1.1" id="Layer_1" xmlns="http://www.w3.org/2000/svg" xmlns:xlink="http://www.w3.org/1999/xlink" x="0px" y="0px"
	 viewBox="0 0 1181 1181" style="enable-background:new 0 0 1181 1181;" xml:space="preserve">
<style type="text/css">
	.st0{fill:#F8E146;}
</style>
<g>
	<path class="st0" d="M534.2,293.8c24.9-40,49.9-79.9,74.5-120c25.1,40.2,50.1,80.4,75.1,120.6c-24.8,39.9-49.7,79.8-74.5,119.8
		c-0.2-0.2-0.7-0.6-1-0.8c-24.7-39.7-49.4-79.4-74.1-119.1L534.2,293.8z"/>
	<g>
		<path class="st0" d="M709.3,335.3C833.2,534.4,957.1,733.5,1081,932.6c-247.8,0-495.6,0-743.4,0
			C461.5,733.5,585.4,534.4,709.3,335.3z M537.6,823.6c114.3,0,228.7,0,343,0C823.5,731.8,766.3,640,709.2,548.2
			C651.9,639.9,594.8,731.8,537.6,823.6z"/>
	</g>
	<path class="st0" d="M136.6,932.6c123.9-199.1,247.8-398.1,371.6-597.2c24.9,40,49.8,80.1,74.7,120.1
		c-42,68.4-84.5,136.6-127,204.9c-56.4,90.7-113,181.4-169.3,272.2C236.7,932.7,186.7,932.6,136.6,932.6z"/>
</g>
</svg>
